# ProBuilder 6.0.9
# https://unity3d.com/unity/features/worldbuilding/probuilder
# 03/03/2026 12:27:34

mtllib ./Crate.mtl
o Crate

g Cylinder
v -1.999617 -0.9634928 1.853428E-06
v -1.999576 0.3075887 0
v -1.617646 -0.9634912 1.290194
v -1.617691 0.3075887 1.290193
v -0.6178582 -0.9634883 2.087587
v -0.6179029 0.3075887 2.087576
v 0.6178994 -0.9634867 2.087587
v 0.6179029 0.3075887 2.087576
v 1.617687 -0.9634988 1.290194
v 1.617691 0.3075887 1.290193
v 1.999536 -0.9634957 1.853427E-06
v 1.999576 0.3075887 -1.918936E-07
v 1.617687 -0.9634982 -1.29019
v 1.617691 0.3075887 -1.290193
v 0.6178993 -0.9635012 -2.087584
v 0.6179032 0.3075887 -2.087576
v -0.6178582 -0.9634874 -2.087584
v -0.6179032 0.3075887 -2.087576
v -1.617646 -0.9634907 -1.29019
v -1.617691 0.3075887 -1.290193
v -1.399236 -1.689563 -0.05312836
v 0.01597061 -1.689546 -0.05312836
v -1.128842 -1.689544 0.8599881
v -1.061069 -0.8674605 -0.01714803
v 0.1113326 -0.8674504 -0.01714803
v -0.8370622 -0.8674561 0.7392912
v -0.4212993 -1.689547 1.42435
v -0.2508616 -0.8674391 1.20682
v 0.4533626 -1.689547 1.42435
v 0.473771 -0.8674654 1.20682
v 1.160905 -1.689549 0.8599881
v 1.05985 -0.8674466 0.7392912
v 1.431177 -1.689552 -0.05312836
v 1.283856 -0.8674417 -0.01714803
v 1.160905 -1.689549 -0.9662448
v 1.05985 -0.8674461 -0.7736483
v 0.4533625 -1.68957 -1.530606
v 0.473771 -0.8674647 -1.241239
v -0.4212993 -1.689546 -1.530606
v -0.2508616 -0.8674383 -1.241239
v -1.128842 -1.689544 -0.9662448
v -0.8370622 -0.8674557 -0.7736483
v 1.381922 0.3245222 -1.086241
v 1.698705 0.3245281 -0.01592806
v 0.5525496 0.3245097 -1.74774
v 1.381922 0.3245218 1.054354
v 0.5525496 0.3245091 1.715822
v -0.4726299 0.3245114 1.715822
v -1.302124 0.3245152 1.054354
v -1.618907 0.3245245 -0.01592806
v -1.302124 0.3245156 -1.086241
v -0.4726299 0.3245121 -1.74774
v 1.381959 -0.2211591 1.054359
v 0.5525219 -0.2212474 1.715836
v 1.698784 -0.2211072 -0.01592786
v -0.4725738 -0.2211611 1.715837
v -1.302053 -0.221139 1.054359
v -1.618878 -0.2211903 -0.01592751
v -1.302053 -0.2211384 -1.086215
v -0.4725741 -0.2211601 -1.747732
v 0.5525215 -0.2212465 -1.747732
v 1.381959 -0.2211585 -1.086215
v 1.15568 -0.4335085 0.9091262
v 0.4510958 -0.433614 1.471078
v 1.424857 -0.4335111 -0.0001108049
v -0.4200041 -0.4335773 1.471078
v -1.124662 -0.43349 0.9091265
v -1.393797 -0.4335969 -0.0001105078
v -1.124662 -0.4334895 -0.9094287
v -0.4200044 -0.4335765 -1.471421
v 0.4510955 -0.4336132 -1.471421
v 1.15568 -0.4335081 -0.9094289

vt -0.5676444 -0.9635522
vt -0.5676346 0.3075293
vt 0.7779024 -0.9635506
vt 0.7778891 0.3075293
vt -0.4601939 -0.9634476
vt -0.4602293 0.3076324
vt 0.8186389 -0.9634447
vt 0.8185968 0.3076324
vt -0.6178582 -0.9635067
vt -0.6179029 0.3075703
vt 0.6178994 -0.9635051
vt 0.6179029 0.3075703
vt -0.8186066 -0.9634972
vt -0.8185969 0.3075782
vt 0.460226 -0.9635093
vt 0.4602295 0.3075782
vt -0.7780575 -0.9634936
vt -0.7780557 0.3075939
vt 0.5674546 -0.9634905
vt 0.567468 0.3075939
vt -0.5674582 -0.9634364
vt -0.5674677 0.3076481
vt 0.7780538 -0.9634389
vt 0.7780555 0.3076481
vt 0.6178582 -0.9635
vt 0.4601963 -0.9634556
vt -0.7778987 -0.9634246
vt -0.7778893 0.3076548
vt 0.5676479 -0.9634266
vt 0.5676346 0.3076548
vt -1.399257 -0.05315724
vt 0.01594969 -0.05315724
vt -1.128863 0.8599592
vt 1.061076 -0.01715086
vt -0.1113251 -0.01715086
vt 0.8370698 0.7392884
vt -0.421295 1.424352
vt 0.2508769 1.206808
vt 0.4533622 1.424351
vt -0.4738025 1.206822
vt 1.16091 0.8599877
vt -1.059834 0.7393065
vt 1.431185 -0.05313178
vt -1.283849 -0.01714432
vt 1.160913 -0.9662403
vt -1.059843 -0.7736514
vt 0.453339 -1.530641
vt -0.4737553 -1.241253
vt 0.0160169 -0.05314247
vt -0.4212531 -1.53062
vt 0.2508301 -1.241239
vt -1.128837 -0.9662465
vt 0.8370775 -0.7736352
vt -1.597493 -1.28326
vt -1.978755 0.007116677
vt -1.361142 -1.079279
vt -1.677408 -0.008813386
vt -0.6069531 -2.071469
vt -1.606149 -1.273343
vt -0.5410559 -1.731316
vt -1.369937 -1.069201
vt -1.979487 -0.00684363
vt -1.598187 1.283522
vt -1.678139 -0.02277364
vt -1.361843 1.047652
vt -1.607076 1.274845
vt -0.6077945 2.072864
vt -1.370887 1.038818
vt -0.5419356 1.700814
vt -0.6179029 2.071432
vt 0.6179029 2.071432
vt -0.5525496 1.699293
vt 0.4726299 1.699293
vt 0.6091559 2.075068
vt 1.608561 1.277205
vt 0.4634703 1.703091
vt 1.292647 1.041224
vt 1.602636 1.285172
vt 1.984153 -0.005130285
vt 1.286631 1.049313
vt 1.603108 -0.02105981
vt 1.983708 0.005291104
vt 1.60221 -1.285016
vt 1.602663 -0.01063837
vt 1.286201 -1.081046
vt 1.607872 -1.276118
vt 0.6085226 -2.07405
vt 1.291942 -1.072024
vt 0.4628118 -1.73398
vt 0.6179032 -2.069694
vt -0.6179032 -2.069694
vt 0.4726299 -1.729436
vt -0.5525496 -1.729436
vt -0.5674555 0.3520676
vt 0.7780564 0.3520645
vt -0.3552137 -0.5468014
vt 0.5970619 -0.5468129
vt -0.7780608 0.4082184
vt 0.5674512 0.4082222
vt -0.4951743 -0.5087611
vt 0.4571013 -0.5087484
vt -0.460225 0.4270691
vt 0.8186077 0.4270654
vt -0.3051048 -0.476633
vt 0.5999479 -0.4766269
vt -0.6179171 0.506136
vt 0.6178404 0.5061533
vt -0.4533755 -0.4089586
vt 0.4212863 -0.408935
vt -0.8186325 0.4653502
vt 0.4602002 0.4653461
vt -0.6250094 -0.4503628
vt 0.2800432 -0.4503868
vt -0.7778965 0.4092667
vt 0.5676502 0.4092642
vt -0.6060398 -0.5080601
vt 0.3462706 -0.5080411
vt -0.5676461 0.462733
vt 0.7779006 0.4627351
vt -0.4481556 -0.4733118
vt 0.5041547 -0.4733328
vt -0.7656455 0.0373805
vt 0.05105018 1.021464
vt 0.05244725 -0.493547
vt 0.6304193 0.2029215
vt -0.6178606 0.6965907
vt 0.617897 0.6965928
vt -0.421301 -0.2867939
vt 0.453361 -0.286793
vt -0.06817851 1.000484
vt 0.7397608 0.009198394
vt -0.6288083 0.1759755
vt -0.05703227 -0.5255886
vt -0.4229693 0.3244383
vt 0.6378793 0.3244256
vt -0.4229947 -0.2212425
vt 0.6379096 -0.2213308
vt -0.4973826 0.3243026
vt 0.6187961 0.3242963
vt -0.4974048 -0.2213326
vt 0.6187907 -0.2213845
vt -0.5525496 0.3244652
vt 0.4726299 0.3244675
vt -0.5525219 -0.2212913
vt 0.4725738 -0.2212049
vt -0.7002432 0.3245833
vt 0.3607006 0.3245871
vt -0.7002958 -0.2210891
vt 0.3606411 -0.2210671
vt -0.6414436 0.324706
vt 0.474735 0.3247153
vt -0.6414692 -0.2209482
vt 0.4747262 -0.2209996
vt -0.4441767 0.3246052
vt 0.6720312 0.3245963
vt -0.4441689 -0.2211097
vt 0.6720265 -0.2210578
vt -0.3407829 0.3247132
vt 0.7201799 0.3247097
vt -0.3407432 -0.2209408
vt 0.720219 -0.2209625
vt -0.4726299 0.3245354
vt 0.5525496 0.324533
vt -0.4725741 -0.2211368
vt 0.5525215 -0.2212232
vt -0.6578187 0.3245822
vt 0.4030488 0.3245947
vt -0.6578362 -0.2211739
vt 0.4030933 -0.221086
vt -0.6493842 0.3244394
vt 0.4668238 0.3244453
vt -0.6493492 -0.2212413
vt 0.4668463 -0.22119
vt -1.124054 0.4952241
vt -0.3881278 1.259377
vt -0.8253266 0.3274477
vt -0.2001631 0.9766003
vt -1.196783 -0.2366697
vt -0.9480088 0.8514498
vt -0.8501662 -0.2205891
vt -0.638835 0.7038066
vt -0.5525405 1.151012
vt 0.4725552 1.151012
vt -0.4511323 0.8269596
vt 0.4199676 0.8269357
vt 0.2943427 1.214886
vt 1.008477 0.4302844
vt 0.1410225 0.924569
vt 0.7477273 0.2580551
vt 0.7841945 0.8189548
vt 1.012311 -0.2736821
vt 0.509112 0.670689
vt 0.7028472 -0.2575418
vt 1.038589 0.2329236
vt 0.8059806 -0.8587657
vt 0.7291256 0.2490569
vt 0.531573 -0.6784485
vt 1.045557 -0.5264218
vt 0.3132904 -1.294163
vt 0.789202 -0.3212484
vt 0.1670962 -0.9734457
vt 0.4725555 -1.250809
vt -0.5525401 -1.250809
vt 0.4199678 -0.9022876
vt -0.451132 -0.9023101
vt -0.4044218 -1.333039
vt -1.15389 -0.5821275
vt -0.2217799 -1.019388
vt -0.8584463 -0.3814775
vt -0.9650305 -0.8901516
vt -1.217038 0.1972235
vt -0.6563422 -0.7105431
vt -0.8704215 0.2132998
vt -0.5439883 -0.02187401
vt 0.4043343 -0.02187721
vt -0.4409935 -0.4749901
vt 0.3479751 -0.4749677
vt -0.5649288 0.1060123
vt 0.3363337 0.1061248
vt -0.4036617 -0.3584423
vt 0.3460907 -0.3584469
vt -0.4045797 0.007032588
vt 0.5436652 0.007035317
vt -0.3808901 -0.4489347
vt 0.40802 -0.4489582
vt -0.3365619 0.18424
vt 0.5646752 0.1841246
vt -0.3675497 -0.2904909
vt 0.3821647 -0.2904942
vt -0.4511334 0.3949183
vt 0.4199665 0.3949613
vt -0.4738018 -0.113077
vt 0.2508308 -0.1130449
vt -0.588935 0.4724723
vt 0.3123593 0.4725799
vt -0.5563909 -0.06196012
vt 0.193419 -0.06196405
vt -0.5524154 0.4521728
vt 0.3958175 0.4520394
vt -0.4712207 -0.08939111
vt 0.3176893 -0.08937742
vt -0.39557 0.4327256
vt 0.5527407 0.4328582
vt -0.2847773 -0.1029619
vt 0.5041912 -0.102977
vt -0.3121297 0.4140227
vt 0.5891899 0.4139185
vt -0.1719627 -0.1054286
vt 0.5778852 -0.1054093
vt -0.4199713 0.3066114
vt 0.4511286 0.3065698
vt -0.2508337 -0.1845318
vt 0.4737989 -0.1845627

vn -1 1.503345E-05 1.526069E-05
vn -0.82945 -1.203856E-05 0.5585811
vn -0.3303033 -5.047232E-06 0.9438748
vn 0.3303049 7.422735E-06 0.9438743
vn 0.8294648 -4.379708E-07 0.558559
vn 1 -2.46668E-05 6.449149E-06
vn 0.8294621 -1.093464E-05 -0.5585631
vn 0.3303033 2.957364E-06 -0.9438748
vn -0.3303049 -6.044277E-06 -0.9438743
vn -0.8294405 -2.891613E-05 -0.5585951
vn 1.238248E-05 -1 1.709105E-05
vn -8.693606E-06 1 -3.256469E-06
vn 0.05707981 0.9982266 -0.01689509
vn 0.03437823 0.9984789 -0.04310467
vn 0.05534007 0.9983332 0.01638014
vn 0.03181908 0.9986971 0.03989592
vn 0 0.9989658 0.04546782
vn -0.02765169 0.9990162 0.0346707
vn -0.04387623 0.9989526 0.01298696
vn -0.04389887 0.9989514 0.01300194
vn -0.04499783 0.9988983 -0.01331894
vn -0.0295958 0.9988729 -0.03710829
vn 0 0.9987624 -0.04973686
vn 0.7745346 -0.5895327 -0.2292321
vn 0.7592312 -0.6108001 0.2247025
vn 0.5009583 -0.5954156 -0.6281092
vn 0.5010191 -0.5953668 -0.628107
vn -6.752196E-06 -0.6086538 -0.7934359
vn -0.4943908 -0.6093662 -0.6198795
vn -0.7589262 -0.611185 -0.2246864
vn -0.743768 -0.6311274 0.2201986
vn -0.4673926 -0.6619024 0.5860285
vn 8.457964E-07 -0.6744437 0.7383264
vn 0.4738107 -0.6500529 0.594083
vn -0.6235279 -4.946929E-05 -0.7818012
vn -0.9588805 -0.0001387899 -0.28381
vn -5.794846E-11 -2.555625E-05 -1
vn 0.6234718 4.396385E-05 -0.7818459
vn 0.9588805 0.000123259 -0.28381
vn 0.9588827 5.181492E-05 0.2838025
vn 0.6234894 0.0001189644 0.7818319
vn 0.6235074 7.413253E-05 0.7818174
vn 3.021711E-11 1.332625E-05 1
vn -0.6235453 4.23893E-05 0.7817872
vn -0.9588827 -5.070817E-05 0.2838026
vn -0.3993725 0.7679999 -0.5006772
vn -0.6092096 0.7722407 -0.1802999
vn 6.353841E-05 0.7553058 -0.6553726
vn 0.4288922 0.7258271 -0.5377979
vn 0.6796584 0.7053884 -0.2012255
vn 0.6655187 0.7199027 0.1970408
vn 0.6654916 0.7199271 0.1970433
vn 0.4047703 0.7606491 0.5075176
vn 6.68444E-05 0.7928118 0.6094666
vn -0.3774887 0.7959772 0.4732046
vn -0.3774731 0.7960218 0.4731421
vn -0.5966673 0.7828187 0.1765873
vn -0.9182859 0.2878507 0.2718327
vn -0.5825066 0.3569863 0.7302375
vn -0.5825248 0.3570499 0.7301919
vn -0.9125215 0.3071212 -0.2701502
vn -0.9124898 0.3071907 -0.2701784
vn -0.5699913 0.4055527 -0.7145886
vn -0.5700246 0.4055059 -0.7145886
vn -0.570058 0.4054591 -0.7145886
vn 2.18092E-05 0.5201973 -0.8540461
vn 0.5062075 0.5839108 -0.634667
vn 0.768347 0.5982355 -0.2275021
vn 0.7765982 0.5865413 0.2299228
vn 0.5209512 0.5495939 0.6531129
vn 1.987527E-05 0.4686736 0.8833714

usemtl ProBuilderDefault
f 21/31/11 22/32/11 23/33/11
f 23/33/11 22/32/11 27/37/11
f 27/37/11 22/32/11 29/39/11
f 29/39/11 22/32/11 31/41/11
f 31/41/11 22/32/11 33/43/11
f 33/43/11 22/32/11 35/45/11
f 35/45/11 22/32/11 37/47/11
f 37/47/11 22/49/11 39/50/11
f 39/50/11 22/32/11 41/52/11
f 41/52/11 22/32/11 21/31/11
f 26/36/12 25/35/12 24/34/12
f 28/38/12 25/35/12 26/36/12
f 30/40/12 25/35/12 28/38/12
f 32/42/12 25/35/12 30/40/12
f 34/44/12 25/35/12 32/42/12
f 36/46/12 25/35/12 34/44/12
f 38/48/12 25/35/12 36/46/12
f 40/51/12 25/35/12 38/48/12
f 42/53/12 25/35/12 40/51/12
f 24/34/12 25/35/12 42/53/12
f 4/4/2 2/2/1 1/1/1
f 1/1/1 3/3/2 4/4/2
f 6/8/3 4/6/2 3/5/2
f 3/5/2 5/7/3 6/8/3
f 8/12/4 6/10/3 5/9/3
f 5/9/3 7/11/4 8/12/4
f 10/16/5 8/14/4 7/13/4
f 7/13/4 9/15/5 10/16/5
f 12/20/6 10/18/5 9/17/5
f 9/17/5 11/19/6 12/20/6
f 14/24/7 12/22/6 11/21/6
f 11/21/6 13/23/7 14/24/7
f 16/8/8 14/6/7 13/5/7
f 13/5/7 15/7/8 16/8/8
f 18/12/9 16/10/8 15/9/8
f 15/9/8 17/25/9 18/12/9
f 20/16/10 18/14/9 17/13/9
f 17/13/9 19/26/10 20/16/10
f 2/30/1 20/28/10 19/27/10
f 19/27/10 1/29/1 2/30/1
f 44/57/13 12/55/13 14/54/13
f 14/54/13 43/56/13 44/57/13
f 43/61/14 14/59/14 16/58/14
f 16/58/14 45/60/14 43/61/14
f 46/65/15 10/63/15 12/62/15
f 12/62/15 44/64/15 46/65/15
f 47/69/16 8/67/16 10/66/16
f 10/66/16 46/68/16 47/69/16
f 48/73/17 6/71/17 8/70/17
f 8/70/17 47/72/17 48/73/17
f 49/77/18 4/75/18 6/74/18
f 6/74/18 48/76/18 49/77/18
f 50/81/20 2/79/19 4/78/19
f 4/78/19 49/80/19 50/81/20
f 51/85/21 20/83/21 2/82/21
f 2/82/21 50/84/21 51/85/21
f 52/89/22 18/87/22 20/86/22
f 20/86/22 51/88/22 52/89/22
f 45/93/23 16/91/23 18/90/23
f 18/90/23 52/92/23 45/93/23
f 35/97/24 13/95/24 11/94/24
f 11/94/24 33/96/24 35/97/24
f 33/101/25 11/99/25 9/98/25
f 9/98/25 31/100/25 33/101/25
f 37/105/27 15/103/26 13/102/26
f 13/102/26 35/104/26 37/105/27
f 39/109/28 17/107/28 15/106/28
f 15/106/28 37/108/28 39/109/28
f 41/113/29 19/111/29 17/110/29
f 17/110/29 39/112/29 41/113/29
f 21/117/30 1/115/30 19/114/30
f 19/114/30 41/116/30 21/117/30
f 23/121/31 3/119/31 1/118/31
f 1/118/31 21/120/31 23/121/31
f 27/125/32 5/123/32 3/122/32
f 3/122/32 23/124/32 27/125/32
f 29/129/33 7/127/33 5/126/33
f 5/126/33 27/128/33 29/129/33
f 31/133/34 9/131/34 7/130/34
f 7/130/34 29/132/34 31/133/34
f 54/137/35 47/135/35 46/134/35
f 46/134/35 53/136/35 54/137/35
f 53/141/36 46/139/36 44/138/36
f 44/138/36 55/140/36 53/141/36
f 56/145/37 48/143/37 47/142/37
f 47/142/37 54/144/37 56/145/37
f 57/149/38 49/147/38 48/146/38
f 48/146/38 56/148/38 57/149/38
f 58/153/39 50/151/39 49/150/39
f 49/150/39 57/152/39 58/153/39
f 59/157/40 51/155/40 50/154/40
f 50/154/40 58/156/40 59/157/40
f 60/161/42 52/159/41 51/158/41
f 51/158/41 59/160/41 60/161/42
f 61/165/43 45/163/43 52/162/43
f 52/162/43 60/164/43 61/165/43
f 62/169/44 43/167/44 45/166/44
f 45/166/44 61/168/44 62/169/44
f 55/173/45 44/171/45 43/170/45
f 43/170/45 62/172/45 55/173/45
f 64/177/46 54/175/46 53/174/46
f 53/174/46 63/176/46 64/177/46
f 63/181/47 53/179/47 55/178/47
f 55/178/47 65/180/47 63/181/47
f 66/185/48 56/183/48 54/182/48
f 54/182/48 64/184/48 66/185/48
f 67/189/49 57/187/49 56/186/49
f 56/186/49 66/188/49 67/189/49
f 68/193/50 58/191/50 57/190/50
f 57/190/50 67/192/50 68/193/50
f 69/197/52 59/195/52 58/194/51
f 58/194/51 68/196/52 69/197/52
f 70/201/53 60/199/53 59/198/53
f 59/198/53 69/200/53 70/201/53
f 71/205/54 61/203/54 60/202/54
f 60/202/54 70/204/54 71/205/54
f 72/209/56 62/207/56 61/206/55
f 61/206/55 71/208/56 72/209/56
f 65/213/57 55/211/57 62/210/57
f 62/210/57 72/212/57 65/213/57
f 34/217/58 65/215/58 72/214/58
f 72/214/58 36/216/58 34/217/58
f 36/221/60 72/219/60 71/218/59
f 71/218/59 38/220/60 36/221/60
f 32/225/62 63/223/62 65/222/61
f 65/222/61 34/224/62 32/225/62
f 30/229/65 64/227/64 63/226/63
f 63/226/63 32/228/64 30/229/65
f 28/233/66 66/231/66 64/230/66
f 64/230/66 30/232/66 28/233/66
f 26/237/67 67/235/67 66/234/67
f 66/234/67 28/236/67 26/237/67
f 24/241/68 68/239/68 67/238/68
f 67/238/68 26/240/68 24/241/68
f 42/245/69 69/243/69 68/242/69
f 68/242/69 24/244/69 42/245/69
f 40/249/70 70/247/70 69/246/70
f 69/246/70 42/248/70 40/249/70
f 38/253/71 71/251/71 70/250/71
f 70/250/71 40/252/71 38/253/71

