# ProBuilder 6.0.9
# https://unity3d.com/unity/features/worldbuilding/probuilder
# 18/03/2026 05:47:40

mtllib ./HamsterWheel.mtl
o HamsterWheel

g Pipe (2)
v -2.577114 -7.558046 4.313816
v -5.154229 -7.558046 0
v -2.577114 7.558046 4.313816
v -5.154229 7.558046 0
v -4.154229 -7.558046 0
v -2.089865 -7.558046 3.440553
v -4.154229 7.558046 0
v -2.089865 7.558046 3.440553
v 2.577115 -7.558046 4.313815
v 2.577115 7.558046 4.313815
v 2.089865 -7.558046 3.440552
v 2.089865 7.558046 3.440552
v 5.154229 -7.558046 -4.354673E-07
v 5.154229 7.558046 -4.354673E-07
v 4.154229 -7.558046 -3.450071E-07
v 4.154229 7.558046 -3.450071E-07
v 2.577114 -7.558046 -4.313816
v 2.577114 7.558046 -4.313816
v 2.089864 -7.558046 -3.440553
v 2.089864 7.558046 -3.440553
v -2.577114 -7.558046 -4.313816
v -2.577114 7.558046 -4.313816
v -2.089864 -7.558046 -3.440553
v -2.089864 7.558046 -3.440553

vt 2.381593 -7.558046
vt -2.643396 -7.558046
vt 2.381593 7.558046
vt -2.643396 7.558046
vt 2.137358 -7.558046
vt -1.874998 -7.558046
vt 2.137358 7.558046
vt -1.874998 7.558046
vt 2.577114 -7.558046
vt -2.577115 -7.558046
vt 2.577114 7.558046
vt -2.577115 7.558046
vt 2.089865 -7.558046
vt -2.089865 -7.558046
vt 2.089865 7.558046
vt -2.089865 7.558046
vt 2.643397 -7.558046
vt -2.381593 -7.558046
vt 2.643397 7.558046
vt -2.381593 7.558046
vt 1.874998 -7.558046
vt -2.137358 -7.558046
vt 1.874998 7.558046
vt -2.137358 7.558046
vt -5.154229 0
vt -2.577114 4.313816
vt -4.154229 0
vt -2.089865 3.440553
vt 2.577114 4.313816
vt 5.154229 0
vt 2.089865 3.440553
vt 4.154229 0
vt 2.577114 -4.313816
vt 2.089864 -3.440553
vt -2.577114 -4.313816
vt -2.089864 -3.440553

vn -0.4935282 0 0.8697298
vn -1 0 0
vn 1 0 0
vn 0.4926957 0 -0.8702016
vn 0.4935283 0 0.8697297
vn -0.4926958 0 -0.8702016
vn 0.4935282 0 -0.8697298
vn -0.4926957 0 0.8702016
vn -0.4935282 0 -0.8697298
vn 0.4926957 0 0.8702016
vn 0 -1 0
vn 0 1 0

usemtl ProBuilderDefault
f 3/3/1 4/4/2 2/2/2 1/1/1
f 7/7/3 8/8/4 6/6/4 5/5/3
f 10/11/5 3/12/1 1/10/1 9/9/5
f 8/15/4 12/16/6 11/14/6 6/13/4
f 14/19/3 10/20/5 9/18/5 13/17/3
f 12/23/6 16/24/2 15/22/2 11/21/6
f 18/3/7 14/4/3 13/2/3 17/1/7
f 16/7/2 20/8/8 19/6/8 15/5/2
f 22/11/9 18/12/7 17/10/7 21/9/9
f 20/15/8 24/16/10 23/14/10 19/13/8
f 4/19/2 22/20/9 21/18/9 2/17/2
f 24/23/10 7/24/3 5/22/3 23/21/10
f 5/27/11 6/28/11 1/26/11 2/25/11
f 8/31/12 7/32/12 4/30/12 3/29/12
f 6/28/11 11/31/11 9/29/11 1/26/11
f 12/28/12 8/31/12 3/29/12 10/26/12
f 11/31/11 15/32/11 13/30/11 9/29/11
f 16/27/12 12/28/12 10/26/12 14/25/12
f 15/32/11 19/34/11 17/33/11 13/30/11
f 20/36/12 16/27/12 14/25/12 18/35/12
f 19/34/11 23/36/11 21/35/11 17/33/11
f 24/34/12 20/36/12 18/35/12 22/33/12
f 23/36/11 5/27/11 2/25/11 21/35/11
f 7/32/12 24/34/12 22/33/12 4/30/12

